<svg width="107" height="12" viewBox="0 0 107 12" fill="none" xmlns="http://www.w3.org/2000/svg">
<path fill-rule="evenodd" clip-rule="evenodd" d="M7.25112 8.06858C7.28098 8.16277 7.31085 8.22556 7.37059 8.25696C7.40046 8.28835 7.43033 8.31975 7.4602 8.31975C7.49007 8.31975 7.51994 8.28835 7.5498 8.25696C7.57967 8.22556 7.63941 8.16277 7.66928 8.06858L10.2679 0.125582H14.121L10.2679 10.0779C10.1783 10.329 10.0588 10.5802 9.90945 10.8C9.7601 11.0197 9.58089 11.2395 9.37181 11.3965C9.16273 11.5849 8.8939 11.7104 8.59522 11.8046C8.29653 11.8988 7.90823 11.9616 7.4602 11.9616C7.01217 11.9616 6.62387 11.8988 6.32518 11.8046C6.02649 11.7104 5.75767 11.5535 5.54859 11.3965C5.33951 11.2395 5.16029 11.0197 5.01095 10.8C4.86161 10.5802 4.74213 10.329 4.65252 10.0779L0.799438 0.125582H4.65252L7.25112 8.06858ZM14.4495 11.836V0.125582H18.0338V11.836H14.4495ZM25.7997 5.52557C26.0088 5.52557 26.2477 5.52557 26.4568 5.49417C26.6659 5.46278 26.8451 5.39999 26.9944 5.21162C27.1737 4.99185 27.2931 4.6465 27.2931 4.20697C27.2931 4.04999 27.2633 3.89301 27.2334 3.73604C27.2035 3.57906 27.1139 3.42208 26.9646 3.2965C26.8152 3.17092 26.636 3.07674 26.4568 3.07674C26.2477 3.04534 26.0685 3.04534 25.8594 3.04534H23.8582C23.7089 3.04534 23.5894 3.07674 23.5297 3.10813C23.44 3.17092 23.3803 3.20232 23.3504 3.2965C23.3206 3.35929 23.2907 3.42208 23.2608 3.51627C23.2608 3.57906 23.231 3.67325 23.231 3.73604V5.55696H25.7997V5.52557ZM19.6168 11.836V2.32325C19.6168 2.07209 19.6467 1.82093 19.7064 1.50697C19.7662 1.19302 19.8857 0.941858 20.0649 0.722091C20.1843 0.565115 20.3636 0.439534 20.6025 0.313953C20.8415 0.188372 21.17 0.125582 21.5284 0.125582H27.6814C28.1295 0.125582 28.5476 0.188372 28.9658 0.282558C29.3541 0.376744 29.7125 0.596511 30.0411 0.973254C30.3099 1.25581 30.519 1.66395 30.6385 2.16627C30.7878 2.6686 30.8475 3.3279 30.8475 4.17557C30.8475 4.36394 30.8475 4.6465 30.8177 4.96045C30.7878 5.27441 30.7579 5.61975 30.6982 5.9965C30.6384 6.34185 30.519 6.68719 30.3995 7.03254C30.28 7.37789 30.0709 7.62905 29.8619 7.84882C29.593 8.06858 29.2943 8.25696 28.9061 8.35114C28.5476 8.44533 28.1892 8.50812 27.8905 8.50812H23.2011V11.8988H19.6168V11.836ZM35.4772 8.91626H41.6601C41.9289 8.91626 42.1081 8.88486 42.1678 8.79068C42.2276 8.72789 42.2873 8.6337 42.2873 8.53951C42.2873 8.35114 42.2276 8.22556 42.0782 8.13137C41.9289 8.06858 41.7795 8.00579 41.6003 7.943L37.2992 6.68719C36.9707 6.59301 36.7018 6.46743 36.4928 6.27905C36.2837 6.09068 36.1343 5.93371 36.0148 5.77673C35.746 5.39999 35.5967 4.99185 35.5071 4.52092C35.4473 4.04999 35.4175 3.61046 35.4175 3.17092C35.4175 2.79418 35.4473 2.41744 35.5071 1.9779C35.5668 1.56976 35.7759 1.16163 36.1045 0.816278C36.2837 0.627906 36.5226 0.470929 36.8213 0.313953C37.12 0.156976 37.5083 0.0941856 37.9862 0.0941856H45.3339V3.01395H39.6589C39.4498 3.01395 39.3004 3.01395 39.2407 3.04534C39.181 3.04534 39.1212 3.07674 39.0913 3.10813C38.9719 3.17092 38.9121 3.2965 38.9121 3.42208C38.9121 3.61046 39.0017 3.73604 39.2108 3.83022C39.4199 3.92441 39.629 3.9872 39.8381 4.04999L43.6015 5.11743C43.8405 5.18022 44.1093 5.27441 44.408 5.43138C44.7067 5.55696 44.9456 5.74533 45.1547 5.9651C45.3339 6.15347 45.4534 6.34184 45.5729 6.56161C45.6924 6.78138 45.7521 7.03254 45.8118 7.25231C45.8716 7.50347 45.9014 7.72324 45.9014 7.9744C45.9313 8.19416 45.9313 8.41393 45.9313 8.6337C45.9313 8.97905 45.9014 9.35579 45.8417 9.79532C45.782 10.2035 45.6326 10.6116 45.3937 10.9569C45.2443 11.1767 45.0651 11.3651 44.8859 11.4907C44.7067 11.6163 44.5275 11.7104 44.3184 11.7732C44.1093 11.836 43.9301 11.8674 43.721 11.8674C43.5119 11.8674 43.3327 11.8988 43.1535 11.8988H35.5071V8.91626H35.4772ZM51.248 6.74998H53.5479L52.5323 3.79883C52.5025 3.76743 52.4726 3.70464 52.4726 3.64185C52.4427 3.57906 52.4129 3.54767 52.4129 3.54767C52.383 3.54767 52.3531 3.57906 52.3531 3.64185C52.3233 3.70464 52.2934 3.76743 52.2934 3.79883L51.248 6.74998ZM49.8441 1.41279L45.7222 11.836H49.5156L50.3818 9.41858H54.3842L55.2504 11.836H59.0438L54.9218 1.41279C54.8024 1.09883 54.653 0.847673 54.4439 0.659301C54.2647 0.47093 54.0557 0.313953 53.8466 0.219767C53.6375 0.125581 53.3985 0.0627913 53.1596 0.031396C52.9206 7.18113e-07 52.6518 0 52.383 0C51.935 0 51.5765 0.031395 51.3077 0.0941856C51.0389 0.156976 50.7999 0.251162 50.5909 0.376743C50.4117 0.502325 50.2324 0.659301 50.1428 0.816278C50.0532 1.00465 49.9338 1.19302 49.8441 1.41279ZM71.5289 9.85811C71.5289 9.9523 71.4991 10.1407 71.4692 10.3604C71.4393 10.5802 71.3497 10.8314 71.1705 11.0511C71.0212 11.2709 70.7822 11.4907 70.4537 11.679C70.1251 11.8674 69.6771 11.9616 69.0797 11.9616C68.8706 11.9616 68.6615 11.9616 68.4525 11.9302C68.2434 11.8988 68.0343 11.8674 67.8252 11.7732C67.6161 11.7104 67.407 11.5849 67.2278 11.4279C67.0187 11.2709 66.8395 11.0511 66.6902 10.8L62.6579 4.83487C62.628 4.77208 62.5683 4.70929 62.5085 4.6465C62.4488 4.58371 62.3891 4.55231 62.3592 4.55231C62.3293 4.55231 62.2995 4.55231 62.2397 4.58371C62.18 4.61511 62.1501 4.70929 62.1501 4.86627V11.8046H59.3723V2.07209C59.3723 1.69535 59.432 1.38139 59.5814 1.09883C59.7307 0.847672 59.9099 0.627905 60.1489 0.470929C60.3878 0.313953 60.6567 0.188372 60.9554 0.125582C61.2541 0.062791 61.5527 0.031396 61.8813 0.031396C62.0306 0.031396 62.2099 0.0313955 62.4189 0.0627908C62.628 0.094186 62.8371 0.125582 63.0462 0.188372C63.2553 0.251163 63.4643 0.376744 63.6734 0.502325C63.8825 0.659301 64.0617 0.847672 64.2409 1.09883L68.2732 7.09533C68.3031 7.15812 68.3628 7.22091 68.4226 7.2837C68.4823 7.34649 68.5122 7.37789 68.6018 7.37789C68.6914 7.37789 68.7511 7.34649 68.7511 7.2837C68.781 7.22091 68.781 7.15812 68.781 7.09533V0.125582H71.5588V9.85811H71.5289ZM76.1287 11.836V3.04534H72.1562V0.125582H83.6856V3.04534H79.713V11.836H76.1287ZM86.1946 11.836C85.9556 11.836 85.7167 11.8046 85.5076 11.7732C85.2686 11.7418 85.0595 11.6162 84.8505 11.4279C84.5816 11.2081 84.4622 10.9883 84.4024 10.7372C84.3726 10.486 84.3427 10.2349 84.3427 9.9523V1.91511C84.3427 1.69535 84.3726 1.47558 84.4323 1.22442C84.492 1.00465 84.6115 0.784881 84.8206 0.565115C85.0297 0.376743 85.2686 0.251163 85.5076 0.188372C85.7465 0.125582 85.9855 0.0941856 86.1647 0.0941856H94.1696V2.91976H88.6737C88.5542 2.91976 88.4646 2.91976 88.375 2.95116C88.2854 2.98255 88.1958 3.01395 88.136 3.07674C88.0464 3.13953 87.9867 3.26511 87.9867 3.35929C87.9568 3.48487 87.9568 3.57906 87.9568 3.64185V4.52092H94.0202V7.06394H87.9568V8.31975C87.9568 8.44533 87.9867 8.53951 88.0166 8.6023C88.0464 8.66509 88.0763 8.72788 88.136 8.75928C88.2256 8.85347 88.3153 8.88486 88.4646 8.91626C88.5841 8.91626 88.7035 8.91626 88.823 8.91626H94.2592V11.7732H86.1946V11.836ZM106.565 11.836H102.981V7.18952H98.9486V11.836H95.3643V0.125582H98.9486V4.26976H102.981V0.125582H106.565V11.836Z" fill="#24242E"/>
</svg>
