<svg width="23" height="29" viewBox="0 0 23 29" fill="none" xmlns="http://www.w3.org/2000/svg">
<path fill-rule="evenodd" clip-rule="evenodd" d="M11.332 0C9.63526 5.30066 0 14.165 0 18.5673C0 23.9578 5.06003 28.3001 11.332 28.3301C17.604 28.3001 22.6641 23.9578 22.6641 18.5673C22.6641 14.165 13.0288 5.30066 11.332 0ZM5.72662 18.7769C5.93872 18.5972 6.09021 18.3277 6.09021 17.9983C6.09021 17.4592 5.66602 17.01 5.15093 17.01C4.63583 17.01 4.21164 17.4592 4.21164 17.9983C4.21164 18.5373 4.63583 18.9866 5.15093 18.9866C5.24183 18.9866 5.36302 18.9566 5.45392 18.9267L7.72639 24.5867C5.15093 23.5685 3.06026 21.4722 3.06026 18.5673C3.06026 17.04 7.2719 11.6794 8.27178 10.3917C9.21107 9.19381 10.3019 7.78628 11.332 6.28892C12.3622 7.75634 13.453 9.16386 14.3923 10.3917C15.3922 11.7094 19.6038 17.04 19.6038 18.5673C19.6038 21.4422 17.5434 23.5385 14.9983 24.5567L17.2708 18.9866C17.3314 19.0165 17.4223 19.0165 17.5131 19.0165C18.0282 19.0165 18.4524 18.5673 18.4524 18.0282C18.4524 17.4892 18.0282 17.04 17.5131 17.04C16.9981 17.04 16.5739 17.4892 16.5739 18.0282C16.5739 18.3577 16.7254 18.6571 16.9981 18.8368L12.9076 22.9396L11.5138 17.3694C11.8774 17.2496 12.1501 16.8603 12.1501 16.441C12.1501 15.902 11.7259 15.4528 11.2108 15.4528C10.6957 15.4528 10.2716 15.902 10.2716 16.441C10.2716 16.8603 10.5442 17.2197 10.9078 17.3694L9.54436 22.5503L5.72662 18.7769Z" fill="#24242E"/>
</svg>
